# xmcd
#
# Track frame offsets: 
#        183
#        12988
#        27500
#        43228
#        58115
#        72710
#        87855
#        100475
#        115035
#        129618
#        144648
#        156555
#        171135
#        184763
#        195653
#        213063
#        231153
#        247798
#        261983
#        279260
#        289255
#        302185
#
# Disc length: 4096 seconds
#
# Revision: 2
# Processed by: cddbd v1.5.2PL0 Copyright (c) Steve Scherf et al.
# Submitted via: ExactAudioCopyFreeDBPlugin 1.0
#
DISCID=4d0ffe16
DTITLE=Detroit Emeralds - Do Me Right and You Want It You Got It
DYEAR=1993
DGENRE=Soul
TTITLE0=Do Me Right
TTITLE1=Wear This Ring (With Love)
TTITLE2=Long Live The King
TTITLE3=What You Gonna Do About Me
TTITLE4=You Can't Take This Love For You, From Me
TTITLE5=Just Now And Then
TTITLE6=Lee
TTITLE7=If I Lose Your Love
TTITLE8=And I Love Her
TTITLE9=I Can't See Myself (Doing Without You)
TTITLE10=Holding On
TTITLE11=Admit Your Love Is Gone
TTITLE12=You Want It You Got It
TTITLE13=There's A Love For Me Somewhere
TTITLE14=I'll Never Sail The Sea Again
TTITLE15=Take My Love
TTITLE16=Feel The Need In Me
TTITLE17=I've Got To Move
TTITLE18=Baby Let Me Take You (In My Arms)
TTITLE19=I Bet You Get The One You Love
TTITLE20=Till You Decide To Come Home
TTITLE21=Radio Promo
EXTD=
EXTT0=
EXTT1=
EXTT2=
EXTT3=
EXTT4=
EXTT5=
EXTT6=
EXTT7=
EXTT8=
EXTT9=
EXTT10=
EXTT11=
EXTT12=
EXTT13=
EXTT14=
EXTT15=
EXTT16=
EXTT17=
EXTT18=
EXTT19=
EXTT20=
EXTT21=
PLAYORDER=
